<svg width="2000" height="400" viewBox="0 0 2000 400" fill="none" xmlns="http://www.w3.org/2000/svg">
<rect width="2000" height="400" fill="black"/>
<path d="M1901.07 200V132.544H1878.01V115.68H1945.71V132.544H1922.77V200H1901.07Z" fill="#FF0000"/>
<path d="M1727.37 200V115.68H1759.24L1788.01 181.028H1788.63L1787.64 115.68H1807.72V200H1776.6L1747.34 134.28H1746.72L1747.34 200H1727.37Z" fill="#FF0000"/>
<path d="M1592.84 200V115.68H1653.6V132.172H1614.41V149.16H1650.99V164.784H1614.41V183.136H1654.84V200H1592.84Z" fill="#FF0000"/>
<path d="M1441.95 115.68H1479.03C1490.27 115.68 1498.58 116.548 1503.95 118.284C1509.41 119.937 1513.21 123.161 1515.36 127.956C1517.51 132.668 1518.59 139.984 1518.59 149.904V165.032C1518.59 175.2 1517.59 182.681 1515.61 187.476C1513.71 192.188 1510.03 195.453 1504.57 197.272C1499.2 199.091 1490.69 200 1479.03 200H1441.95V115.68ZM1478.16 183.136C1483.62 183.136 1487.63 182.64 1490.19 181.648C1492.75 180.573 1494.49 178.672 1495.4 175.944C1496.31 173.216 1496.76 168.959 1496.76 163.172V151.392C1496.76 145.771 1496.31 141.679 1495.4 139.116C1494.49 136.471 1492.75 134.652 1490.19 133.66C1487.63 132.668 1483.62 132.172 1478.16 132.172H1463.65V183.136H1478.16Z" fill="#FF0000"/>
<path d="M1285.98 200V115.68H1317.85L1346.62 181.028H1347.24L1346.25 115.68H1366.34V200H1335.21L1305.95 134.28H1305.33L1305.95 200H1285.98Z" fill="#FF0000"/>
<path d="M1151.45 200V115.68H1212.21V132.172H1173.03V149.16H1209.61V164.784H1173.03V183.136H1213.45V200H1151.45Z" fill="#FF0000"/>
<path d="M1009.65 115.68H1046.23C1055.16 115.68 1061.89 116.465 1066.44 118.036C1070.99 119.524 1074.17 122.252 1075.99 126.22C1077.89 130.105 1078.84 135.975 1078.84 143.828V148.912C1078.84 156.683 1077.89 162.593 1075.99 166.644C1074.09 170.612 1070.9 173.34 1066.44 174.828C1061.98 176.316 1055.57 177.06 1047.22 177.06H1030.85V200H1009.65V115.68ZM1044.86 160.568C1048.5 160.568 1051.19 160.237 1052.92 159.576C1054.74 158.832 1055.98 157.675 1056.64 156.104C1057.31 154.533 1057.64 152.219 1057.64 149.16V143.58C1057.64 140.356 1057.31 137.959 1056.64 136.388C1055.98 134.735 1054.74 133.577 1052.92 132.916C1051.11 132.255 1048.38 131.924 1044.74 131.924H1030.85V160.568H1044.86Z" fill="#FF0000"/>
<path d="M875.113 200V115.68H935.873V132.172H896.689V149.16H933.269V164.784H896.689V183.136H937.113V200H875.113Z" fill="#FF0000"/>
<path d="M724.23 115.68H761.306C772.549 115.68 780.857 116.548 786.23 118.284C791.686 119.937 795.489 123.161 797.638 127.956C799.788 132.668 800.862 139.984 800.862 149.904V165.032C800.862 175.2 799.87 182.681 797.886 187.476C795.985 192.188 792.306 195.453 786.85 197.272C781.477 199.091 772.962 200 761.306 200H724.23V115.68ZM760.438 183.136C765.894 183.136 769.904 182.64 772.466 181.648C775.029 180.573 776.765 178.672 777.674 175.944C778.584 173.216 779.038 168.959 779.038 163.172V151.392C779.038 145.771 778.584 141.679 777.674 139.116C776.765 136.471 775.029 134.652 772.466 133.66C769.904 132.668 765.894 132.172 760.438 132.172H745.93V183.136H760.438Z" fill="#FF0000"/>
<path d="M579.402 115.68H620.322C628.258 115.68 634.293 116.507 638.426 118.16C642.56 119.731 645.412 122.293 646.982 125.848C648.553 129.32 649.338 134.197 649.338 140.48V142.464C649.338 149.16 648.388 154.203 646.486 157.592C644.668 160.981 641.568 163.131 637.186 164.04V164.536C640.658 165.197 643.221 166.231 644.874 167.636C646.61 168.959 647.809 171.025 648.47 173.836C649.132 176.647 649.462 180.821 649.462 186.36V200H628.134V188.096C628.134 183.715 627.721 180.532 626.894 178.548C626.15 176.564 624.704 175.241 622.554 174.58C620.405 173.919 616.892 173.588 612.014 173.588H600.606V200H579.402V115.68ZM615.61 157.84C619 157.84 621.562 157.509 623.298 156.848C625.034 156.187 626.233 155.029 626.894 153.376C627.638 151.723 628.01 149.243 628.01 145.936V143.332C628.01 140.025 627.638 137.587 626.894 136.016C626.233 134.445 625.034 133.371 623.298 132.792C621.645 132.213 619.041 131.924 615.486 131.924H600.606V157.84H615.61Z" fill="#FF0000"/>
<path d="M444.867 200V115.68H505.627V132.172H466.443V149.16H503.023V164.784H466.443V183.136H506.867V200H444.867Z" fill="#FF0000"/>
<path d="M329.88 200V132.544H306.816V115.68H374.52V132.544H351.58V200H329.88Z" fill="#FF0000"/>
<path d="M156.18 200V115.68H188.048L216.816 181.028H217.436L216.444 115.68H236.532V200H205.408L176.144 134.28H175.524L176.144 200H156.18Z" fill="#FF0000"/>
<path d="M58.8203 200V115.68H80.5203V200H58.8203Z" fill="#FF0000"/>
<path d="M1262.44 326.33C1258.44 326.33 1255.54 326 1253.75 325.34C1251.95 324.643 1250.74 323.36 1250.12 321.49C1249.49 319.62 1249.18 316.65 1249.18 312.58V305.595C1249.18 300.278 1249.53 296.447 1250.23 294.1C1250.92 291.753 1252.19 290.195 1254.02 289.425C1255.86 288.655 1258.82 288.27 1262.93 288.27H1263.92C1267.48 288.27 1270.1 288.545 1271.79 289.095C1273.47 289.608 1274.63 290.58 1275.25 292.01C1275.87 293.44 1276.19 295.64 1276.19 298.61V299.655H1272.06V298.72C1272.06 296.667 1271.86 295.182 1271.46 294.265C1271.05 293.348 1270.3 292.725 1269.2 292.395C1268.1 292.065 1266.3 291.9 1263.81 291.9H1263.04C1260.07 291.9 1257.96 292.157 1256.72 292.67C1255.51 293.147 1254.68 294.21 1254.24 295.86C1253.8 297.51 1253.58 300.315 1253.58 304.275V307.41H1253.64C1254.04 306.567 1254.61 305.888 1255.34 305.375C1256.07 304.825 1257.06 304.422 1258.31 304.165C1259.59 303.908 1261.23 303.78 1263.21 303.78H1264.14C1267.77 303.78 1270.47 304.055 1272.23 304.605C1273.99 305.118 1275.2 306.108 1275.86 307.575C1276.55 309.042 1276.9 311.297 1276.9 314.34V315.715C1276.9 318.685 1276.55 320.903 1275.86 322.37C1275.16 323.837 1273.86 324.863 1271.95 325.45C1270.08 326.037 1267.26 326.33 1263.48 326.33H1262.44ZM1263.37 322.7C1266.19 322.7 1268.23 322.535 1269.48 322.205C1270.72 321.838 1271.55 321.178 1271.95 320.225C1272.39 319.235 1272.61 317.677 1272.61 315.55V314.615C1272.61 312.452 1272.39 310.875 1271.95 309.885C1271.51 308.895 1270.67 308.217 1269.42 307.85C1268.17 307.483 1266.16 307.3 1263.37 307.3H1262.66C1260.24 307.3 1258.38 307.465 1257.1 307.795C1255.82 308.125 1254.9 308.712 1254.35 309.555C1253.8 310.398 1253.53 311.663 1253.53 313.35V314.175C1253.53 316.778 1253.73 318.667 1254.13 319.84C1254.57 320.977 1255.4 321.747 1256.61 322.15C1257.85 322.517 1259.87 322.7 1262.66 322.7H1263.37Z" fill="white"/>
<path d="M1215.83 320.995C1215.83 317.548 1216.12 315.018 1216.71 313.405C1217.33 311.792 1218.52 310.582 1220.28 309.775C1222.04 308.968 1224.9 308.272 1228.86 307.685C1231.72 307.318 1233.81 306.878 1235.13 306.365C1236.45 305.815 1237.35 305.045 1237.83 304.055C1238.3 303.028 1238.54 301.488 1238.54 299.435V298.555C1238.54 296.575 1238.32 295.127 1237.88 294.21C1237.48 293.293 1236.67 292.67 1235.46 292.34C1234.29 291.973 1232.42 291.79 1229.85 291.79H1229.14C1226.53 291.79 1224.65 291.973 1223.47 292.34C1222.34 292.707 1221.57 293.422 1221.16 294.485C1220.76 295.548 1220.56 297.272 1220.56 299.655V300.755H1216.38V299.765C1216.38 296.465 1216.69 294.027 1217.31 292.45C1217.97 290.837 1219.16 289.737 1220.89 289.15C1222.65 288.563 1225.36 288.27 1229.03 288.27H1229.74C1233.45 288.27 1236.21 288.563 1238.05 289.15C1239.92 289.7 1241.2 290.69 1241.9 292.12C1242.63 293.513 1243 295.603 1243 298.39V299.435C1243 302.332 1242.65 304.513 1241.95 305.98C1241.26 307.447 1240.05 308.547 1238.32 309.28C1236.64 310.013 1234.05 310.637 1230.57 311.15C1227.16 311.627 1224.77 312.122 1223.42 312.635C1222.1 313.148 1221.24 313.937 1220.83 315C1220.43 316.063 1220.23 317.842 1220.23 320.335V322.48H1243.11V326H1215.83V320.995Z" fill="white"/>
<path d="M1194.87 326.33C1190.91 326.33 1188.02 325.927 1186.18 325.12C1184.35 324.313 1183.07 322.718 1182.33 320.335C1181.64 317.915 1181.29 314.083 1181.29 308.84V305.815C1181.29 300.535 1181.64 296.703 1182.33 294.32C1183.07 291.9 1184.35 290.287 1186.18 289.48C1188.02 288.673 1190.91 288.27 1194.87 288.27H1195.86C1199.82 288.27 1202.72 288.673 1204.55 289.48C1206.39 290.287 1207.67 291.9 1208.4 294.32C1209.14 296.74 1209.5 300.572 1209.5 305.815V308.84C1209.5 314.083 1209.14 317.915 1208.4 320.335C1207.67 322.718 1206.39 324.313 1204.55 325.12C1202.72 325.927 1199.82 326.33 1195.86 326.33H1194.87ZM1195.81 322.59C1198.67 322.59 1200.7 322.315 1201.91 321.765C1203.16 321.215 1204 320.023 1204.44 318.19C1204.92 316.357 1205.16 313.277 1205.16 308.95V305.65C1205.16 301.36 1204.92 298.298 1204.44 296.465C1204 294.595 1203.16 293.385 1201.91 292.835C1200.7 292.285 1198.67 292.01 1195.81 292.01H1194.98C1192.12 292.01 1190.07 292.285 1188.82 292.835C1187.61 293.385 1186.77 294.595 1186.29 296.465C1185.85 298.298 1185.63 301.36 1185.63 305.65V308.95C1185.63 313.24 1185.85 316.32 1186.29 318.19C1186.77 320.023 1187.61 321.215 1188.82 321.765C1190.07 322.315 1192.12 322.59 1194.98 322.59H1195.81Z" fill="white"/>
<path d="M1148.04 320.995C1148.04 317.548 1148.34 315.018 1148.92 313.405C1149.55 311.792 1150.74 310.582 1152.5 309.775C1154.26 308.968 1157.12 308.272 1161.08 307.685C1163.94 307.318 1166.03 306.878 1167.35 306.365C1168.67 305.815 1169.57 305.045 1170.04 304.055C1170.52 303.028 1170.76 301.488 1170.76 299.435V298.555C1170.76 296.575 1170.54 295.127 1170.1 294.21C1169.7 293.293 1168.89 292.67 1167.68 292.34C1166.51 291.973 1164.64 291.79 1162.07 291.79H1161.35C1158.75 291.79 1156.86 291.973 1155.69 292.34C1154.55 292.707 1153.78 293.422 1153.38 294.485C1152.98 295.548 1152.77 297.272 1152.77 299.655V300.755H1148.59V299.765C1148.59 296.465 1148.91 294.027 1149.53 292.45C1150.19 290.837 1151.38 289.737 1153.1 289.15C1154.86 288.563 1157.58 288.27 1161.24 288.27H1161.96C1165.66 288.27 1168.43 288.563 1170.26 289.15C1172.13 289.7 1173.42 290.69 1174.11 292.12C1174.85 293.513 1175.21 295.603 1175.21 298.39V299.435C1175.21 302.332 1174.87 304.513 1174.17 305.98C1173.47 307.447 1172.26 308.547 1170.54 309.28C1168.85 310.013 1166.27 310.637 1162.78 311.15C1159.37 311.627 1156.99 312.122 1155.63 312.635C1154.31 313.148 1153.45 313.937 1153.05 315C1152.65 316.063 1152.44 317.842 1152.44 320.335V322.48H1175.32V326H1148.04V320.995Z" fill="white"/>
<path d="M1113.15 326.33C1108.97 326.33 1105.84 325.872 1103.75 324.955C1101.69 324.002 1100.26 322.315 1099.46 319.895C1098.65 317.438 1098.25 313.753 1098.25 308.84V305.65C1098.25 300.7 1098.67 297.015 1099.51 294.595C1100.39 292.138 1101.86 290.47 1103.91 289.59C1106 288.71 1109.1 288.27 1113.21 288.27H1114.2C1117.9 288.27 1120.72 288.6 1122.67 289.26C1124.65 289.883 1126.04 290.947 1126.85 292.45C1127.65 293.917 1128.06 296.007 1128.06 298.72V299.6H1123.66V298.83C1123.66 296.923 1123.4 295.493 1122.89 294.54C1122.41 293.587 1121.49 292.927 1120.14 292.56C1118.82 292.157 1116.82 291.955 1114.14 291.955H1113.32C1110.2 291.955 1107.93 292.267 1106.5 292.89C1105.1 293.513 1104.13 294.76 1103.58 296.63C1103.07 298.5 1102.81 301.525 1102.81 305.705V308.84C1102.81 312.91 1103.09 315.898 1103.64 317.805C1104.19 319.675 1105.18 320.94 1106.61 321.6C1108.04 322.223 1110.27 322.535 1113.32 322.535H1114.14C1116.93 322.535 1119 322.333 1120.36 321.93C1121.71 321.49 1122.65 320.702 1123.16 319.565C1123.71 318.428 1123.99 316.65 1123.99 314.23V310.875H1112.33V307.465H1128.39V313.735C1128.39 317.145 1127.98 319.73 1127.18 321.49C1126.37 323.25 1124.96 324.497 1122.94 325.23C1120.93 325.963 1117.99 326.33 1114.14 326.33H1113.15Z" fill="white"/>
<path d="M1060.24 326V288.6H1067.28L1087.08 321.985H1087.25L1087.14 288.6H1091.48V326H1084.55L1064.7 292.505H1064.48L1064.53 326H1060.24Z" fill="white"/>
<path d="M1048.1 326V288.6H1052.67V326H1048.1Z" fill="white"/>
<path d="M1013.14 288.6H1029.09C1032.39 288.6 1034.86 288.912 1036.51 289.535C1038.2 290.122 1039.35 291.13 1039.98 292.56C1040.64 293.99 1040.97 296.117 1040.97 298.94V300.205C1040.97 302.222 1040.78 303.853 1040.42 305.1C1040.05 306.31 1039.48 307.227 1038.71 307.85C1037.98 308.473 1036.99 308.913 1035.74 309.17V309.28C1037.17 309.537 1038.25 309.995 1038.99 310.655C1039.72 311.278 1040.23 312.25 1040.53 313.57C1040.82 314.89 1040.97 316.797 1040.97 319.29V326H1036.4V320.94C1036.4 317.897 1036.24 315.752 1035.91 314.505C1035.58 313.222 1034.88 312.378 1033.82 311.975C1032.75 311.535 1030.96 311.315 1028.43 311.315H1017.65V326H1013.14V288.6ZM1029.91 307.74C1031.6 307.74 1032.9 307.538 1033.82 307.135C1034.77 306.695 1035.43 305.998 1035.8 305.045C1036.2 304.055 1036.4 302.662 1036.4 300.865V299.49C1036.4 297.363 1036.2 295.805 1035.8 294.815C1035.39 293.825 1034.62 293.147 1033.49 292.78C1032.35 292.413 1030.57 292.23 1028.15 292.23H1017.65V307.74H1029.91Z" fill="white"/>
<path d="M979.352 288.6H994.037C997.813 288.6 1000.6 288.893 1002.4 289.48C1004.23 290.03 1005.49 291.057 1006.19 292.56C1006.89 294.063 1007.24 296.41 1007.24 299.6V300.975C1007.24 304.128 1006.87 306.475 1006.14 308.015C1005.4 309.555 1004.12 310.618 1002.29 311.205C1000.49 311.755 997.795 312.03 994.202 312.03H983.862V326H979.352V288.6ZM993.597 308.345C996.383 308.345 998.4 308.162 999.647 307.795C1000.89 307.428 1001.72 306.768 1002.12 305.815C1002.56 304.825 1002.78 303.248 1002.78 301.085V299.49C1002.78 297.29 1002.56 295.713 1002.12 294.76C1001.72 293.77 1000.89 293.11 999.647 292.78C998.4 292.413 996.365 292.23 993.542 292.23H983.862V308.345H993.597Z" fill="white"/>
<path d="M958.664 326.33C954.484 326.33 951.423 326.055 949.479 325.505C947.536 324.955 946.216 323.965 945.519 322.535C944.859 321.105 944.529 318.868 944.529 315.825V314.285H948.819V315.605C948.819 317.658 949.058 319.18 949.534 320.17C950.011 321.123 950.891 321.783 952.174 322.15C953.494 322.517 955.566 322.7 958.389 322.7H959.434C961.964 322.7 963.834 322.535 965.044 322.205C966.254 321.838 967.079 321.197 967.519 320.28C967.959 319.327 968.179 317.878 968.179 315.935V315.165C968.179 313.515 967.959 312.305 967.519 311.535C967.079 310.728 966.163 310.123 964.769 309.72C963.376 309.317 961.103 308.987 957.949 308.73C954.319 308.437 951.588 307.96 949.754 307.3C947.921 306.64 946.656 305.668 945.959 304.385C945.263 303.102 944.914 301.268 944.914 298.885V298.005C944.914 295.512 945.263 293.568 945.959 292.175C946.693 290.782 947.939 289.792 949.699 289.205C951.496 288.582 954.044 288.27 957.344 288.27H958.444C962.258 288.27 965.099 288.582 966.969 289.205C968.839 289.792 970.104 290.8 970.764 292.23C971.461 293.623 971.809 295.732 971.809 298.555V299.765H967.464V298.775C967.464 296.832 967.244 295.383 966.804 294.43C966.364 293.477 965.539 292.817 964.329 292.45C963.119 292.047 961.231 291.845 958.664 291.845H957.729C955.346 291.845 953.568 292.01 952.394 292.34C951.221 292.67 950.414 293.275 949.974 294.155C949.571 294.998 949.369 296.3 949.369 298.06V298.83C949.369 300.333 949.589 301.452 950.029 302.185C950.506 302.918 951.441 303.487 952.834 303.89C954.228 304.293 956.428 304.623 959.434 304.88C963.174 305.173 965.979 305.668 967.849 306.365C969.719 307.025 970.984 307.997 971.644 309.28C972.341 310.563 972.689 312.433 972.689 314.89V315.77C972.689 318.63 972.323 320.812 971.589 322.315C970.856 323.782 969.591 324.827 967.794 325.45C965.998 326.037 963.376 326.33 959.929 326.33H958.664Z" fill="white"/>
<path d="M909.857 326.33C905.677 326.33 902.542 325.872 900.452 324.955C898.399 324.002 896.969 322.315 896.162 319.895C895.355 317.438 894.952 313.753 894.952 308.84V305.65C894.952 300.7 895.374 297.015 896.217 294.595C897.097 292.138 898.564 290.47 900.617 289.59C902.707 288.71 905.805 288.27 909.912 288.27H910.902C914.605 288.27 917.429 288.6 919.372 289.26C921.352 289.883 922.745 290.947 923.552 292.45C924.359 293.917 924.762 296.007 924.762 298.72V299.6H920.362V298.83C920.362 296.923 920.105 295.493 919.592 294.54C919.115 293.587 918.199 292.927 916.842 292.56C915.522 292.157 913.524 291.955 910.847 291.955H910.022C906.905 291.955 904.632 292.267 903.202 292.89C901.809 293.513 900.837 294.76 900.287 296.63C899.774 298.5 899.517 301.525 899.517 305.705V308.84C899.517 312.91 899.792 315.898 900.342 317.805C900.892 319.675 901.882 320.94 903.312 321.6C904.742 322.223 906.979 322.535 910.022 322.535H910.847C913.634 322.535 915.705 322.333 917.062 321.93C918.419 321.49 919.354 320.702 919.867 319.565C920.417 318.428 920.692 316.65 920.692 314.23V310.875H909.032V307.465H925.092V313.735C925.092 317.145 924.689 319.73 923.882 321.49C923.075 323.25 921.664 324.497 919.647 325.23C917.63 325.963 914.697 326.33 910.847 326.33H909.857Z" fill="white"/>
<path d="M856.944 326V288.6H863.984L883.784 321.985H883.949L883.839 288.6H888.184V326H881.254L861.399 292.505H861.179L861.234 326H856.944Z" fill="white"/>
<path d="M844.806 326V288.6H849.371V326H844.806Z" fill="white"/>
<path d="M796.949 326V288.6H804.044L817.134 321.435H817.299L830.224 288.6H837.209V326H832.919L833.029 292.45H832.864L819.444 326H814.824L801.294 292.45H801.129L801.239 326H796.949Z" fill="white"/>
<path d="M773.975 326.33C769.722 326.33 766.532 325.872 764.405 324.955C762.315 324.038 760.849 322.37 760.005 319.95C759.162 317.493 758.74 313.808 758.74 308.895V305.705C758.74 300.792 759.162 297.125 760.005 294.705C760.849 292.248 762.315 290.562 764.405 289.645C766.532 288.728 769.722 288.27 773.975 288.27H775.02C779.274 288.27 782.445 288.728 784.535 289.645C786.662 290.562 788.147 292.248 788.99 294.705C789.834 297.125 790.255 300.792 790.255 305.705V308.895C790.255 313.808 789.834 317.493 788.99 319.95C788.147 322.37 786.662 324.038 784.535 324.955C782.445 325.872 779.274 326.33 775.02 326.33H773.975ZM775.02 322.535C778.174 322.535 780.465 322.223 781.895 321.6C783.362 320.94 784.352 319.693 784.865 317.86C785.415 315.99 785.69 312.983 785.69 308.84V305.705C785.69 301.562 785.415 298.555 784.865 296.685C784.352 294.815 783.362 293.568 781.895 292.945C780.465 292.285 778.174 291.955 775.02 291.955H774.03C770.84 291.955 768.512 292.285 767.045 292.945C765.615 293.568 764.625 294.815 764.075 296.685C763.562 298.555 763.305 301.562 763.305 305.705V308.84C763.305 312.983 763.562 315.99 764.075 317.86C764.625 319.693 765.615 320.94 767.045 321.6C768.512 322.223 770.84 322.535 774.03 322.535H775.02Z" fill="white"/>
<path d="M737.82 326.33C733.53 326.33 730.34 325.872 728.25 324.955C726.197 324.002 724.785 322.333 724.015 319.95C723.245 317.53 722.86 313.827 722.86 308.84V305.705C722.86 300.828 723.264 297.18 724.07 294.76C724.877 292.303 726.307 290.617 728.36 289.7C730.45 288.747 733.585 288.27 737.765 288.27H738.755C742.459 288.27 745.282 288.6 747.225 289.26C749.205 289.883 750.599 290.947 751.405 292.45C752.212 293.953 752.615 296.117 752.615 298.94V300.095H748.27V299.215C748.27 297.198 748.014 295.695 747.5 294.705C747.024 293.678 746.107 292.963 744.75 292.56C743.43 292.157 741.432 291.955 738.755 291.955H737.875C734.795 291.955 732.54 292.285 731.11 292.945C729.717 293.568 728.745 294.815 728.195 296.685C727.682 298.555 727.425 301.562 727.425 305.705V308.785C727.425 312.965 727.682 315.99 728.195 317.86C728.745 319.73 729.717 320.977 731.11 321.6C732.54 322.223 734.832 322.535 737.985 322.535H738.81C741.56 322.535 743.595 322.352 744.915 321.985C746.272 321.582 747.207 320.867 747.72 319.84C748.234 318.813 748.49 317.255 748.49 315.165V314.34H752.89V315.55C752.89 318.447 752.469 320.665 751.625 322.205C750.782 323.708 749.37 324.772 747.39 325.395C745.41 326.018 742.569 326.33 738.865 326.33H737.82Z" fill="white"/>
</svg>
