<svg width="2000" height="400" viewBox="0 0 2000 400" fill="none" xmlns="http://www.w3.org/2000/svg">
<rect width="2000" height="400" fill="black"/>
<path d="M1901.07 200V132.544H1878.01V115.68H1945.71V132.544H1922.77V200H1901.07Z" fill="#FF0000"/>
<path d="M1727.37 200V115.68H1759.24L1788.01 181.028H1788.63L1787.64 115.68H1807.72V200H1776.6L1747.34 134.28H1746.72L1747.34 200H1727.37Z" fill="#FF0000"/>
<path d="M1592.84 200V115.68H1653.6V132.172H1614.41V149.16H1650.99V164.784H1614.41V183.136H1654.84V200H1592.84Z" fill="#FF0000"/>
<path d="M1441.95 115.68H1479.03C1490.27 115.68 1498.58 116.548 1503.95 118.284C1509.41 119.937 1513.21 123.161 1515.36 127.956C1517.51 132.668 1518.59 139.984 1518.59 149.904V165.032C1518.59 175.2 1517.59 182.681 1515.61 187.476C1513.71 192.188 1510.03 195.453 1504.57 197.272C1499.2 199.091 1490.69 200 1479.03 200H1441.95V115.68ZM1478.16 183.136C1483.62 183.136 1487.63 182.64 1490.19 181.648C1492.75 180.573 1494.49 178.672 1495.4 175.944C1496.31 173.216 1496.76 168.959 1496.76 163.172V151.392C1496.76 145.771 1496.31 141.679 1495.4 139.116C1494.49 136.471 1492.75 134.652 1490.19 133.66C1487.63 132.668 1483.62 132.172 1478.16 132.172H1463.65V183.136H1478.16Z" fill="#FF0000"/>
<path d="M1285.98 200V115.68H1317.85L1346.62 181.028H1347.24L1346.25 115.68H1366.34V200H1335.21L1305.95 134.28H1305.33L1305.95 200H1285.98Z" fill="#FF0000"/>
<path d="M1151.45 200V115.68H1212.21V132.172H1173.03V149.16H1209.61V164.784H1173.03V183.136H1213.45V200H1151.45Z" fill="#FF0000"/>
<path d="M1009.65 115.68H1046.23C1055.16 115.68 1061.89 116.465 1066.44 118.036C1070.99 119.524 1074.17 122.252 1075.99 126.22C1077.89 130.105 1078.84 135.975 1078.84 143.828V148.912C1078.84 156.683 1077.89 162.593 1075.99 166.644C1074.09 170.612 1070.9 173.34 1066.44 174.828C1061.98 176.316 1055.57 177.06 1047.22 177.06H1030.85V200H1009.65V115.68ZM1044.86 160.568C1048.5 160.568 1051.19 160.237 1052.92 159.576C1054.74 158.832 1055.98 157.675 1056.64 156.104C1057.31 154.533 1057.64 152.219 1057.64 149.16V143.58C1057.64 140.356 1057.31 137.959 1056.64 136.388C1055.98 134.735 1054.74 133.577 1052.92 132.916C1051.11 132.255 1048.38 131.924 1044.74 131.924H1030.85V160.568H1044.86Z" fill="#FF0000"/>
<path d="M875.113 200V115.68H935.873V132.172H896.689V149.16H933.269V164.784H896.689V183.136H937.113V200H875.113Z" fill="#FF0000"/>
<path d="M724.23 115.68H761.306C772.549 115.68 780.857 116.548 786.23 118.284C791.686 119.937 795.489 123.161 797.638 127.956C799.788 132.668 800.862 139.984 800.862 149.904V165.032C800.862 175.2 799.87 182.681 797.886 187.476C795.985 192.188 792.306 195.453 786.85 197.272C781.477 199.091 772.962 200 761.306 200H724.23V115.68ZM760.438 183.136C765.894 183.136 769.904 182.64 772.466 181.648C775.029 180.573 776.765 178.672 777.674 175.944C778.584 173.216 779.038 168.959 779.038 163.172V151.392C779.038 145.771 778.584 141.679 777.674 139.116C776.765 136.471 775.029 134.652 772.466 133.66C769.904 132.668 765.894 132.172 760.438 132.172H745.93V183.136H760.438Z" fill="#FF0000"/>
<path d="M579.402 115.68H620.322C628.258 115.68 634.293 116.507 638.426 118.16C642.56 119.731 645.412 122.293 646.982 125.848C648.553 129.32 649.338 134.197 649.338 140.48V142.464C649.338 149.16 648.388 154.203 646.486 157.592C644.668 160.981 641.568 163.131 637.186 164.04V164.536C640.658 165.197 643.221 166.231 644.874 167.636C646.61 168.959 647.809 171.025 648.47 173.836C649.132 176.647 649.462 180.821 649.462 186.36V200H628.134V188.096C628.134 183.715 627.721 180.532 626.894 178.548C626.15 176.564 624.704 175.241 622.554 174.58C620.405 173.919 616.892 173.588 612.014 173.588H600.606V200H579.402V115.68ZM615.61 157.84C619 157.84 621.562 157.509 623.298 156.848C625.034 156.187 626.233 155.029 626.894 153.376C627.638 151.723 628.01 149.243 628.01 145.936V143.332C628.01 140.025 627.638 137.587 626.894 136.016C626.233 134.445 625.034 133.371 623.298 132.792C621.645 132.213 619.041 131.924 615.486 131.924H600.606V157.84H615.61Z" fill="#FF0000"/>
<path d="M444.867 200V115.68H505.627V132.172H466.443V149.16H503.023V164.784H466.443V183.136H506.867V200H444.867Z" fill="#FF0000"/>
<path d="M329.88 200V132.544H306.816V115.68H374.52V132.544H351.58V200H329.88Z" fill="#FF0000"/>
<path d="M156.18 200V115.68H188.048L216.816 181.028H217.436L216.444 115.68H236.532V200H205.408L176.144 134.28H175.524L176.144 200H156.18Z" fill="#FF0000"/>
<path d="M58.8203 200V115.68H80.5203V200H58.8203Z" fill="#FF0000"/>
<path d="M1271.34 319.33C1267.35 319.33 1264.45 319 1262.65 318.34C1260.86 317.643 1259.65 316.36 1259.02 314.49C1258.4 312.62 1258.09 309.65 1258.09 305.58V298.595C1258.09 293.278 1258.44 289.447 1259.13 287.1C1259.83 284.753 1261.09 283.195 1262.93 282.425C1264.76 281.655 1267.73 281.27 1271.84 281.27H1272.83C1276.38 281.27 1279.01 281.545 1280.69 282.095C1282.38 282.608 1283.53 283.58 1284.16 285.01C1284.78 286.44 1285.09 288.64 1285.09 291.61V292.655H1280.97V291.72C1280.97 289.667 1280.77 288.182 1280.36 287.265C1279.96 286.348 1279.21 285.725 1278.11 285.395C1277.01 285.065 1275.21 284.9 1272.72 284.9H1271.95C1268.98 284.9 1266.87 285.157 1265.62 285.67C1264.41 286.147 1263.59 287.21 1263.15 288.86C1262.71 290.51 1262.49 293.315 1262.49 297.275V300.41H1262.54C1262.95 299.567 1263.51 298.888 1264.25 298.375C1264.98 297.825 1265.97 297.422 1267.22 297.165C1268.5 296.908 1270.13 296.78 1272.11 296.78H1273.05C1276.68 296.78 1279.37 297.055 1281.13 297.605C1282.89 298.118 1284.1 299.108 1284.76 300.575C1285.46 302.042 1285.81 304.297 1285.81 307.34V308.715C1285.81 311.685 1285.46 313.903 1284.76 315.37C1284.07 316.837 1282.76 317.863 1280.86 318.45C1278.99 319.037 1276.16 319.33 1272.39 319.33H1271.34ZM1272.28 315.7C1275.1 315.7 1277.14 315.535 1278.38 315.205C1279.63 314.838 1280.45 314.178 1280.86 313.225C1281.3 312.235 1281.52 310.677 1281.52 308.55V307.615C1281.52 305.452 1281.3 303.875 1280.86 302.885C1280.42 301.895 1279.57 301.217 1278.33 300.85C1277.08 300.483 1275.06 300.3 1272.28 300.3H1271.56C1269.14 300.3 1267.29 300.465 1266.01 300.795C1264.72 301.125 1263.81 301.712 1263.26 302.555C1262.71 303.398 1262.43 304.663 1262.43 306.35V307.175C1262.43 309.778 1262.63 311.667 1263.04 312.84C1263.48 313.977 1264.3 314.747 1265.51 315.15C1266.76 315.517 1268.78 315.7 1271.56 315.7H1272.28Z" fill="white"/>
<path d="M1224.73 313.995C1224.73 310.548 1225.03 308.018 1225.61 306.405C1226.24 304.792 1227.43 303.582 1229.19 302.775C1230.95 301.968 1233.81 301.272 1237.77 300.685C1240.63 300.318 1242.72 299.878 1244.04 299.365C1245.36 298.815 1246.26 298.045 1246.73 297.055C1247.21 296.028 1247.45 294.488 1247.45 292.435V291.555C1247.45 289.575 1247.23 288.127 1246.79 287.21C1246.39 286.293 1245.58 285.67 1244.37 285.34C1243.2 284.973 1241.33 284.79 1238.76 284.79H1238.04C1235.44 284.79 1233.55 284.973 1232.38 285.34C1231.24 285.707 1230.47 286.422 1230.07 287.485C1229.67 288.548 1229.46 290.272 1229.46 292.655V293.755H1225.28V292.765C1225.28 289.465 1225.6 287.027 1226.22 285.45C1226.88 283.837 1228.07 282.737 1229.79 282.15C1231.55 281.563 1234.27 281.27 1237.93 281.27H1238.65C1242.35 281.27 1245.12 281.563 1246.95 282.15C1248.82 282.7 1250.11 283.69 1250.8 285.12C1251.54 286.513 1251.9 288.603 1251.9 291.39V292.435C1251.9 295.332 1251.56 297.513 1250.86 298.98C1250.16 300.447 1248.95 301.547 1247.23 302.28C1245.54 303.013 1242.96 303.637 1239.47 304.15C1236.06 304.627 1233.68 305.122 1232.32 305.635C1231 306.148 1230.14 306.937 1229.74 308C1229.34 309.063 1229.13 310.842 1229.13 313.335V315.48H1252.01V319H1224.73V313.995Z" fill="white"/>
<path d="M1203.78 319.33C1199.82 319.33 1196.92 318.927 1195.09 318.12C1193.26 317.313 1191.97 315.718 1191.24 313.335C1190.54 310.915 1190.19 307.083 1190.19 301.84V298.815C1190.19 293.535 1190.54 289.703 1191.24 287.32C1191.97 284.9 1193.26 283.287 1195.09 282.48C1196.92 281.673 1199.82 281.27 1203.78 281.27H1204.77C1208.73 281.27 1211.63 281.673 1213.46 282.48C1215.29 283.287 1216.58 284.9 1217.31 287.32C1218.04 289.74 1218.41 293.572 1218.41 298.815V301.84C1218.41 307.083 1218.04 310.915 1217.31 313.335C1216.58 315.718 1215.29 317.313 1213.46 318.12C1211.63 318.927 1208.73 319.33 1204.77 319.33H1203.78ZM1204.71 315.59C1207.57 315.59 1209.61 315.315 1210.82 314.765C1212.07 314.215 1212.91 313.023 1213.35 311.19C1213.83 309.357 1214.06 306.277 1214.06 301.95V298.65C1214.06 294.36 1213.83 291.298 1213.35 289.465C1212.91 287.595 1212.07 286.385 1210.82 285.835C1209.61 285.285 1207.57 285.01 1204.71 285.01H1203.89C1201.03 285.01 1198.98 285.285 1197.73 285.835C1196.52 286.385 1195.68 287.595 1195.2 289.465C1194.76 291.298 1194.54 294.36 1194.54 298.65V301.95C1194.54 306.24 1194.76 309.32 1195.2 311.19C1195.68 313.023 1196.52 314.215 1197.73 314.765C1198.98 315.315 1201.03 315.59 1203.89 315.59H1204.71Z" fill="white"/>
<path d="M1156.95 313.995C1156.95 310.548 1157.24 308.018 1157.83 306.405C1158.45 304.792 1159.65 303.582 1161.41 302.775C1163.17 301.968 1166.03 301.272 1169.99 300.685C1172.85 300.318 1174.94 299.878 1176.26 299.365C1177.58 298.815 1178.47 298.045 1178.95 297.055C1179.43 296.028 1179.67 294.488 1179.67 292.435V291.555C1179.67 289.575 1179.45 288.127 1179.01 287.21C1178.6 286.293 1177.8 285.67 1176.59 285.34C1175.41 284.973 1173.54 284.79 1170.98 284.79H1170.26C1167.66 284.79 1165.77 284.973 1164.6 285.34C1163.46 285.707 1162.69 286.422 1162.29 287.485C1161.88 288.548 1161.68 290.272 1161.68 292.655V293.755H1157.5V292.765C1157.5 289.465 1157.81 287.027 1158.44 285.45C1159.1 283.837 1160.29 282.737 1162.01 282.15C1163.77 281.563 1166.48 281.27 1170.15 281.27H1170.87C1174.57 281.27 1177.34 281.563 1179.17 282.15C1181.04 282.7 1182.32 283.69 1183.02 285.12C1183.75 286.513 1184.12 288.603 1184.12 291.39V292.435C1184.12 295.332 1183.77 297.513 1183.08 298.98C1182.38 300.447 1181.17 301.547 1179.45 302.28C1177.76 303.013 1175.17 303.637 1171.69 304.15C1168.28 304.627 1165.9 305.122 1164.54 305.635C1163.22 306.148 1162.36 306.937 1161.96 308C1161.55 309.063 1161.35 310.842 1161.35 313.335V315.48H1184.23V319H1156.95V313.995Z" fill="white"/>
<path d="M1122.06 319.33C1117.88 319.33 1114.74 318.872 1112.65 317.955C1110.6 317.002 1109.17 315.315 1108.36 312.895C1107.56 310.438 1107.15 306.753 1107.15 301.84V298.65C1107.15 293.7 1107.58 290.015 1108.42 287.595C1109.3 285.138 1110.77 283.47 1112.82 282.59C1114.91 281.71 1118.01 281.27 1122.11 281.27H1123.1C1126.81 281.27 1129.63 281.6 1131.57 282.26C1133.55 282.883 1134.95 283.947 1135.75 285.45C1136.56 286.917 1136.96 289.007 1136.96 291.72V292.6H1132.56V291.83C1132.56 289.923 1132.31 288.493 1131.79 287.54C1131.32 286.587 1130.4 285.927 1129.04 285.56C1127.72 285.157 1125.73 284.955 1123.05 284.955H1122.22C1119.11 284.955 1116.83 285.267 1115.4 285.89C1114.01 286.513 1113.04 287.76 1112.49 289.63C1111.98 291.5 1111.72 294.525 1111.72 298.705V301.84C1111.72 305.91 1111.99 308.898 1112.54 310.805C1113.09 312.675 1114.08 313.94 1115.51 314.6C1116.94 315.223 1119.18 315.535 1122.22 315.535H1123.05C1125.84 315.535 1127.91 315.333 1129.26 314.93C1130.62 314.49 1131.56 313.702 1132.07 312.565C1132.62 311.428 1132.89 309.65 1132.89 307.23V303.875H1121.23V300.465H1137.29V306.735C1137.29 310.145 1136.89 312.73 1136.08 314.49C1135.28 316.25 1133.87 317.497 1131.85 318.23C1129.83 318.963 1126.9 319.33 1123.05 319.33H1122.06Z" fill="white"/>
<path d="M1069.15 319V281.6H1076.19L1095.99 314.985H1096.15L1096.04 281.6H1100.39V319H1093.46L1073.6 285.505H1073.38L1073.44 319H1069.15Z" fill="white"/>
<path d="M1057.01 319V281.6H1061.57V319H1057.01Z" fill="white"/>
<path d="M1022.04 281.6H1037.99C1041.29 281.6 1043.77 281.912 1045.42 282.535C1047.1 283.122 1048.26 284.13 1048.88 285.56C1049.54 286.99 1049.87 289.117 1049.87 291.94V293.205C1049.87 295.222 1049.69 296.853 1049.32 298.1C1048.96 299.31 1048.39 300.227 1047.62 300.85C1046.88 301.473 1045.89 301.913 1044.65 302.17V302.28C1046.08 302.537 1047.16 302.995 1047.89 303.655C1048.63 304.278 1049.14 305.25 1049.43 306.57C1049.73 307.89 1049.87 309.797 1049.87 312.29V319H1045.31V313.94C1045.31 310.897 1045.14 308.752 1044.81 307.505C1044.48 306.222 1043.79 305.378 1042.72 304.975C1041.66 304.535 1039.86 304.315 1037.33 304.315H1026.55V319H1022.04V281.6ZM1038.82 300.74C1040.5 300.74 1041.81 300.538 1042.72 300.135C1043.68 299.695 1044.34 298.998 1044.7 298.045C1045.11 297.055 1045.31 295.662 1045.31 293.865V292.49C1045.31 290.363 1045.11 288.805 1044.7 287.815C1044.3 286.825 1043.53 286.147 1042.39 285.78C1041.26 285.413 1039.48 285.23 1037.06 285.23H1026.55V300.74H1038.82Z" fill="white"/>
<path d="M988.258 281.6H1002.94C1006.72 281.6 1009.51 281.893 1011.3 282.48C1013.14 283.03 1014.4 284.057 1015.1 285.56C1015.79 287.063 1016.14 289.41 1016.14 292.6V293.975C1016.14 297.128 1015.78 299.475 1015.04 301.015C1014.31 302.555 1013.03 303.618 1011.19 304.205C1009.4 304.755 1006.7 305.03 1003.11 305.03H992.768V319H988.258V281.6ZM1002.5 301.345C1005.29 301.345 1007.31 301.162 1008.55 300.795C1009.8 300.428 1010.62 299.768 1011.03 298.815C1011.47 297.825 1011.69 296.248 1011.69 294.085V292.49C1011.69 290.29 1011.47 288.713 1011.03 287.76C1010.62 286.77 1009.8 286.11 1008.55 285.78C1007.31 285.413 1005.27 285.23 1002.45 285.23H992.768V301.345H1002.5Z" fill="white"/>
<path d="M967.571 319.33C963.391 319.33 960.329 319.055 958.386 318.505C956.442 317.955 955.122 316.965 954.426 315.535C953.766 314.105 953.436 311.868 953.436 308.825V307.285H957.726V308.605C957.726 310.658 957.964 312.18 958.441 313.17C958.917 314.123 959.797 314.783 961.081 315.15C962.401 315.517 964.472 315.7 967.296 315.7H968.341C970.871 315.7 972.741 315.535 973.951 315.205C975.161 314.838 975.986 314.197 976.426 313.28C976.866 312.327 977.086 310.878 977.086 308.935V308.165C977.086 306.515 976.866 305.305 976.426 304.535C975.986 303.728 975.069 303.123 973.676 302.72C972.282 302.317 970.009 301.987 966.856 301.73C963.226 301.437 960.494 300.96 958.661 300.3C956.827 299.64 955.562 298.668 954.866 297.385C954.169 296.102 953.821 294.268 953.821 291.885V291.005C953.821 288.512 954.169 286.568 954.866 285.175C955.599 283.782 956.846 282.792 958.606 282.205C960.402 281.582 962.951 281.27 966.251 281.27H967.351C971.164 281.27 974.006 281.582 975.876 282.205C977.746 282.792 979.011 283.8 979.671 285.23C980.367 286.623 980.716 288.732 980.716 291.555V292.765H976.371V291.775C976.371 289.832 976.151 288.383 975.711 287.43C975.271 286.477 974.446 285.817 973.236 285.45C972.026 285.047 970.137 284.845 967.571 284.845H966.636C964.252 284.845 962.474 285.01 961.301 285.34C960.127 285.67 959.321 286.275 958.881 287.155C958.477 287.998 958.276 289.3 958.276 291.06V291.83C958.276 293.333 958.496 294.452 958.936 295.185C959.412 295.918 960.347 296.487 961.741 296.89C963.134 297.293 965.334 297.623 968.341 297.88C972.081 298.173 974.886 298.668 976.756 299.365C978.626 300.025 979.891 300.997 980.551 302.28C981.247 303.563 981.596 305.433 981.596 307.89V308.77C981.596 311.63 981.229 313.812 980.496 315.315C979.762 316.782 978.497 317.827 976.701 318.45C974.904 319.037 972.282 319.33 968.836 319.33H967.571Z" fill="white"/>
<path d="M918.763 319.33C914.583 319.33 911.448 318.872 909.358 317.955C907.305 317.002 905.875 315.315 905.068 312.895C904.262 310.438 903.858 306.753 903.858 301.84V298.65C903.858 293.7 904.28 290.015 905.123 287.595C906.003 285.138 907.47 283.47 909.523 282.59C911.613 281.71 914.712 281.27 918.818 281.27H919.808C923.512 281.27 926.335 281.6 928.278 282.26C930.258 282.883 931.652 283.947 932.458 285.45C933.265 286.917 933.668 289.007 933.668 291.72V292.6H929.268V291.83C929.268 289.923 929.012 288.493 928.498 287.54C928.022 286.587 927.105 285.927 925.748 285.56C924.428 285.157 922.43 284.955 919.753 284.955H918.928C915.812 284.955 913.538 285.267 912.108 285.89C910.715 286.513 909.743 287.76 909.193 289.63C908.68 291.5 908.423 294.525 908.423 298.705V301.84C908.423 305.91 908.698 308.898 909.248 310.805C909.798 312.675 910.788 313.94 912.218 314.6C913.648 315.223 915.885 315.535 918.928 315.535H919.753C922.54 315.535 924.612 315.333 925.968 314.93C927.325 314.49 928.26 313.702 928.773 312.565C929.323 311.428 929.598 309.65 929.598 307.23V303.875H917.938V300.465H933.998V306.735C933.998 310.145 933.595 312.73 932.788 314.49C931.982 316.25 930.57 317.497 928.553 318.23C926.537 318.963 923.603 319.33 919.753 319.33H918.763Z" fill="white"/>
<path d="M865.851 319V281.6H872.891L892.691 314.985H892.856L892.746 281.6H897.091V319H890.161L870.306 285.505H870.086L870.141 319H865.851Z" fill="white"/>
<path d="M853.712 319V281.6H858.277V319H853.712Z" fill="white"/>
<path d="M814.879 319V281.6H821.919L841.719 314.985H841.884L841.774 281.6H846.119V319H839.189L819.334 285.505H819.114L819.169 319H814.879Z" fill="white"/>
<path d="M784.908 319V281.6H809.108V285.23H789.473V297.88H808.008V301.4H789.473V315.315H809.273V319H784.908Z" fill="white"/>
<path d="M751.124 281.6H765.809C769.586 281.6 772.372 281.893 774.169 282.48C776.002 283.03 777.267 284.057 777.964 285.56C778.661 287.063 779.009 289.41 779.009 292.6V293.975C779.009 297.128 778.642 299.475 777.909 301.015C777.176 302.555 775.892 303.618 774.059 304.205C772.262 304.755 769.567 305.03 765.974 305.03H755.634V319H751.124V281.6ZM765.369 301.345C768.156 301.345 770.172 301.162 771.419 300.795C772.666 300.428 773.491 299.768 773.894 298.815C774.334 297.825 774.554 296.248 774.554 294.085V292.49C774.554 290.29 774.334 288.713 773.894 287.76C773.491 286.77 772.666 286.11 771.419 285.78C770.172 285.413 768.137 285.23 765.314 285.23H755.634V301.345H765.369Z" fill="white"/>
<path d="M728.15 319.33C723.897 319.33 720.707 318.872 718.58 317.955C716.49 317.038 715.023 315.37 714.18 312.95C713.337 310.493 712.915 306.808 712.915 301.895V298.705C712.915 293.792 713.337 290.125 714.18 287.705C715.023 285.248 716.49 283.562 718.58 282.645C720.707 281.728 723.897 281.27 728.15 281.27H729.195C733.448 281.27 736.62 281.728 738.71 282.645C740.837 283.562 742.322 285.248 743.165 287.705C744.008 290.125 744.43 293.792 744.43 298.705V301.895C744.43 306.808 744.008 310.493 743.165 312.95C742.322 315.37 740.837 317.038 738.71 317.955C736.62 318.872 733.448 319.33 729.195 319.33H728.15ZM729.195 315.535C732.348 315.535 734.64 315.223 736.07 314.6C737.537 313.94 738.527 312.693 739.04 310.86C739.59 308.99 739.865 305.983 739.865 301.84V298.705C739.865 294.562 739.59 291.555 739.04 289.685C738.527 287.815 737.537 286.568 736.07 285.945C734.64 285.285 732.348 284.955 729.195 284.955H728.205C725.015 284.955 722.687 285.285 721.22 285.945C719.79 286.568 718.8 287.815 718.25 289.685C717.737 291.555 717.48 294.562 717.48 298.705V301.84C717.48 305.983 717.737 308.99 718.25 310.86C718.8 312.693 719.79 313.94 721.22 314.6C722.687 315.223 725.015 315.535 728.205 315.535H729.195Z" fill="white"/>
</svg>
