<svg viewBox="0 0 15 15" xmlns="http://www.w3.org/2000/svg" fill="none" role="img" aria-label="Reader">
  <g stroke="currentColor" stroke-linecap="round" stroke-linejoin="round" vector-effect="non-scaling-stroke">
    <path d="M7.019 13.7604C10.7574 13.7604 13.788 10.736 13.788 7.00518C13.788 3.2744 10.7574 0.25 7.019 0.25C3.28058 0.25 0.25 3.2744 0.25 7.00518C0.25 10.736 3.28058 13.7604 7.019 13.7604Z" stroke-width="1.2"/>
    <path fill-rule="evenodd" clip-rule="evenodd" d="M5.08497 4.11011H1.45872C1.23218 4.11011 0.97522 4.37817 0.97522 4.83388V7.24644C0.97522 7.46089 1.23218 7.72895 1.45872 7.72895H5.08497C5.3115 7.72895 5.56847 7.46089 5.56847 7.24644V4.83388C5.56847 4.37817 5.3115 4.11011 5.08497 4.11011Z" stroke-width="1.0"/>
    <path fill-rule="evenodd" clip-rule="evenodd" d="M12.5792 4.11011H8.95298C8.72645 4.11011 8.46948 4.37817 8.46948 4.83388V7.24644C8.46948 7.46089 8.72645 7.72895 8.95298 7.72895H12.5792C12.8058 7.72895 13.0627 7.46089 13.0627 7.24644V4.83388C13.0627 4.37817 12.8058 4.11011 12.5792 4.11011Z" stroke-width="1.0"/>
    <path d="M5.56848 4.83398H8.22773" stroke-width="0.9"/>
    <path d="M5.56848 6.04004H8.22773" stroke-width="0.9"/>
  </g>
</svg>
